<svg width="1440" height="1024" viewBox="0 0 1440 1024" fill="none" xmlns="http://www.w3.org/2000/svg">
<g clip-path="url(#clip0_21_1282)">
<rect width="1440" height="1024" fill="url(#paint0_radial_21_1282)"/>
<path d="M43 1024V892M115 1024V678" stroke="#3CE5FC"/>
<path d="M79 1024V978L135.5 921.5M165 855V511" stroke="#3CE5FC"/>
<path d="M345.5 1024V764.5L185 604V447.5M185 296V239.5" stroke="#3CE5FC"/>
<path d="M319 1024L236.5 940.5V745.5L326.5 655.5V610M326.5 529.5V380L267 320.5V103.5" stroke="#3CE5FC"/>
<path d="M369 1024V888L425.5 831.5V765.5M425.5 652.5V560.5L357 492V216.5" stroke="#3CE5FC"/>
<path d="M551 1024V926L492 867V506" stroke="#3CE5FC"/>
<path d="M695 1024.5V827M618.5 687.5L535.5 604.5V238" stroke="#3CE5FC"/>
<path d="M623 1024V778L565 720V414L606 373V126" stroke="#3CE5FC"/>
<path d="M545.5 1024V881L639 787.5M708.5 597.5V466" stroke="#3CE5FC"/>
<path d="M833.5 1024V817.5L773 757M743.5 595.5V236" stroke="#3CE5FC"/>
<path d="M745 1023.5V835M828 639.5V304.5" stroke="#3CE5FC"/>
<path d="M912 616V977L959 1024" stroke="#3CE5FC"/>
<path d="M894 1024V908L974.5 827.5V581L911 517.5V484.5M911 333V152" stroke="#3CE5FC"/>
<path d="M1153 1025.5V874.5L1098 819.5M1036 757.5L1033 754.5V379.5" stroke="#3CE5FC"/>
<path d="M943.5 1023.5L1065 902V834.5M1065 746V499" stroke="#3CE5FC"/>
<path d="M997 1024V891L1054.5 833.5M1109 778L1124 763V321" stroke="#3CE5FC"/>
<path d="M1295 1024V918L1187 810V454" stroke="#3CE5FC"/>
<path d="M1225.5 1024V945L1283.5 887V589L1225 530.5V398.5M1225 317V205.5" stroke="#3CE5FC"/>
<path d="M1404 1024V890L1345 831V735.5M1345 610V510.5" stroke="#3CE5FC"/>
<circle cx="43" cy="888" r="6" fill="#37C9E9"/>
<g filter="url(#filter0_f_21_1282)">
<circle cx="43" cy="888" r="11" fill="#3CE5FC" fill-opacity="0.6"/>
</g>
<circle cx="115" cy="677" r="6" fill="#37C9E9"/>
<g filter="url(#filter1_f_21_1282)">
<circle cx="115" cy="677" r="11" fill="#3CE5FC" fill-opacity="0.6"/>
</g>
<circle cx="185" cy="234" r="6" fill="#37C9E9"/>
<g filter="url(#filter2_f_21_1282)">
<circle cx="185" cy="234" r="11" fill="#3CE5FC" fill-opacity="0.6"/>
</g>
<circle cx="267" cy="99" r="6" fill="#37C9E9"/>
<g filter="url(#filter3_f_21_1282)">
<circle cx="267" cy="99" r="11" fill="#3CE5FC" fill-opacity="0.6"/>
</g>
<circle cx="535" cy="233" r="6" fill="#37C9E9"/>
<g filter="url(#filter4_f_21_1282)">
<circle cx="535" cy="233" r="11" fill="#3CE5FC" fill-opacity="0.6"/>
</g>
<circle cx="606" cy="125" r="6" fill="#37C9E9"/>
<g filter="url(#filter5_f_21_1282)">
<circle cx="606" cy="125" r="11" fill="#3CE5FC" fill-opacity="0.6"/>
</g>
<circle cx="708" cy="461" r="6" fill="#37C9E9"/>
<g filter="url(#filter6_f_21_1282)">
<circle cx="708" cy="461" r="11" fill="#3CE5FC" fill-opacity="0.6"/>
</g>
<circle cx="828" cy="299" r="6" fill="#37C9E9"/>
<g filter="url(#filter7_f_21_1282)">
<circle cx="828" cy="299" r="11" fill="#3CE5FC" fill-opacity="0.6"/>
</g>
<circle cx="912" cy="615" r="6" fill="#37C9E9"/>
<g filter="url(#filter8_f_21_1282)">
<circle cx="912" cy="615" r="11" fill="#3CE5FC" fill-opacity="0.6"/>
</g>
<circle cx="911" cy="147" r="6" fill="#37C9E9"/>
<g filter="url(#filter9_f_21_1282)">
<circle cx="911" cy="147" r="11" fill="#3CE5FC" fill-opacity="0.6"/>
</g>
<circle cx="1065" cy="495" r="6" fill="#37C9E9"/>
<g filter="url(#filter10_f_21_1282)">
<circle cx="1065" cy="495" r="11" fill="#3CE5FC" fill-opacity="0.6"/>
</g>
<circle cx="1124" cy="317" r="6" fill="#37C9E9"/>
<g filter="url(#filter11_f_21_1282)">
<circle cx="1124" cy="317" r="11" fill="#3CE5FC" fill-opacity="0.6"/>
</g>
<circle cx="1187" cy="453" r="6" fill="#37C9E9"/>
<g filter="url(#filter12_f_21_1282)">
<circle cx="1187" cy="453" r="11" fill="#3CE5FC" fill-opacity="0.6"/>
</g>
<circle cx="1225" cy="201" r="6" fill="#37C9E9"/>
<g filter="url(#filter13_f_21_1282)">
<circle cx="1225" cy="201" r="11" fill="#3CE5FC" fill-opacity="0.6"/>
</g>
<circle cx="165" cy="506" r="6" fill="#37C9E9"/>
<g filter="url(#filter14_f_21_1282)">
<circle cx="165" cy="506" r="21" fill="#3CE5FC" fill-opacity="0.7"/>
</g>
<circle cx="165" cy="506" r="12.5" stroke="#3CE5FC"/>
<g filter="url(#filter15_f_21_1282)">
<circle cx="165" cy="506" r="12.5" stroke="#3CE5FC"/>
</g>
<circle cx="357" cy="211" r="6" fill="#37C9E9"/>
<g filter="url(#filter16_f_21_1282)">
<circle cx="357" cy="211" r="21" fill="#3CE5FC" fill-opacity="0.7"/>
</g>
<circle cx="357" cy="211" r="12.5" stroke="#3CE5FC"/>
<g filter="url(#filter17_f_21_1282)">
<circle cx="357" cy="211" r="12.5" stroke="#3CE5FC"/>
</g>
<circle cx="492" cy="502" r="6" fill="#37C9E9"/>
<g filter="url(#filter18_f_21_1282)">
<circle cx="492" cy="502" r="21" fill="#3CE5FC" fill-opacity="0.7"/>
</g>
<circle cx="492" cy="502" r="12.5" stroke="#3CE5FC"/>
<g filter="url(#filter19_f_21_1282)">
<circle cx="492" cy="502" r="12.5" stroke="#3CE5FC"/>
</g>
<circle cx="743" cy="231" r="6" fill="#37C9E9"/>
<g filter="url(#filter20_f_21_1282)">
<circle cx="743" cy="231" r="21" fill="#3CE5FC" fill-opacity="0.7"/>
</g>
<circle cx="743" cy="231" r="12.5" stroke="#3CE5FC"/>
<g filter="url(#filter21_f_21_1282)">
<circle cx="743" cy="231" r="12.5" stroke="#3CE5FC"/>
</g>
<circle cx="1033" cy="375" r="6" fill="#37C9E9"/>
<g filter="url(#filter22_f_21_1282)">
<circle cx="1033" cy="375" r="21" fill="#3CE5FC" fill-opacity="0.7"/>
</g>
<circle cx="1033" cy="375" r="12.5" stroke="#3CE5FC"/>
<g filter="url(#filter23_f_21_1282)">
<circle cx="1033" cy="375" r="12.5" stroke="#3CE5FC"/>
</g>
<circle cx="1345" cy="505" r="6" fill="#37C9E9"/>
<g filter="url(#filter24_f_21_1282)">
<circle cx="1345" cy="505" r="21" fill="#3CE5FC" fill-opacity="0.7"/>
</g>
<circle cx="1345" cy="505" r="12.5" stroke="#3CE5FC"/>
<g filter="url(#filter25_f_21_1282)">
<circle cx="1345" cy="505" r="12.5" stroke="#3CE5FC"/>
</g>
<circle cx="326.5" cy="569.5" r="39.5" stroke="#3CE5FC" stroke-width="3"/>
<g filter="url(#filter26_f_21_1282)">
<circle cx="326.5" cy="569.5" r="39.5" stroke="#3CE5FC" stroke-width="3"/>
</g>
<circle cx="1065.5" cy="790.5" r="43.5" stroke="#3CE5FC" stroke-width="3"/>
<g filter="url(#filter27_f_21_1282)">
<circle cx="1065.5" cy="790.5" r="43.5" stroke="#3CE5FC" stroke-width="3"/>
</g>
<circle cx="1224.5" cy="357.5" r="39.5" stroke="#3CE5FC" stroke-width="3"/>
<g filter="url(#filter28_f_21_1282)">
<circle cx="1224.5" cy="357.5" r="39.5" stroke="#3CE5FC" stroke-width="3"/>
</g>
<path d="M197.776 915.784C193.624 922.274 187.665 927.409 180.632 930.556C173.599 933.702 165.799 934.723 158.193 933.493C150.587 932.263 143.507 928.835 137.824 923.632C132.142 918.428 128.105 911.677 126.212 904.208C124.318 896.74 124.65 888.88 127.167 881.598C129.683 874.316 134.275 867.928 140.376 863.223C146.477 858.517 153.821 855.698 161.503 855.114C169.186 854.529 176.872 856.204 183.614 859.933L175.218 875.117C171.437 873.027 167.128 872.087 162.82 872.415C158.512 872.743 154.394 874.323 150.973 876.962C147.552 879.601 144.977 883.182 143.566 887.265C142.155 891.349 141.969 895.756 143.031 899.944C144.092 904.131 146.356 907.917 149.542 910.835C152.728 913.753 156.698 915.675 160.963 916.365C165.228 917.054 169.602 916.482 173.545 914.717C177.489 912.953 180.831 910.074 183.158 906.434L197.776 915.784Z" stroke="#3CE5FC" stroke-width="3"/>
<path d="M136.569 922.431C142.296 928.157 149.644 931.985 157.618 933.396C165.593 934.807 173.808 933.733 181.151 930.319C188.495 926.905 194.612 921.316 198.673 914.31C202.735 907.304 204.545 899.219 203.858 891.15C203.171 883.08 200.02 875.417 194.833 869.199C189.646 862.98 182.672 858.506 174.857 856.382C167.042 854.259 158.764 854.589 151.142 857.327C143.521 860.066 136.926 865.081 132.25 871.692L146.417 881.711C149.038 878.004 152.737 875.192 157.01 873.656C161.283 872.121 165.926 871.936 170.308 873.126C174.69 874.317 178.6 876.826 181.509 880.313C184.417 883.8 186.184 888.097 186.569 892.621C186.954 897.146 185.939 901.679 183.662 905.608C181.385 909.537 177.955 912.67 173.837 914.585C169.719 916.499 165.113 917.101 160.641 916.31C156.17 915.519 152.049 913.372 148.838 910.162L136.569 922.431Z" stroke="#3CE5FC" stroke-width="3"/>
<g filter="url(#filter29_f_21_1282)">
<circle cx="164.5" cy="894.5" r="33.5" stroke="#13AD6D" stroke-width="12"/>
</g>
<g filter="url(#filter30_f_21_1282)">
<circle cx="164.5" cy="894.5" r="21.0667" stroke="#FFF621" stroke-width="3"/>
</g>
<circle cx="164.5" cy="894.5" r="16.9333" stroke="#FCF43C" stroke-width="3"/>
<circle cx="185" cy="372" r="75" stroke="#3CE5FC" stroke-width="3"/>
<path d="M257.485 352.742C253.875 339.155 246.519 326.856 236.256 317.248C225.993 307.64 213.236 301.11 199.441 298.403C185.645 295.696 171.367 296.922 158.234 301.939C145.101 306.956 133.643 315.563 125.166 326.779C116.69 337.995 111.536 351.367 110.294 365.37C109.051 379.374 111.769 393.445 118.138 405.978C124.507 418.511 134.271 429.001 146.315 436.253C158.359 443.504 172.198 447.225 186.255 446.99L185.719 414.967C177.665 415.102 169.735 412.97 162.834 408.815C155.933 404.661 150.339 398.65 146.69 391.469C143.04 384.287 141.483 376.225 142.195 368.201C142.907 360.178 145.86 352.516 150.717 346.089C155.574 339.663 162.139 334.731 169.664 331.857C177.188 328.982 185.37 328.28 193.274 329.831C201.179 331.382 208.488 335.123 214.369 340.628C220.249 346.133 224.464 353.18 226.532 360.965L257.485 352.742Z" stroke="#3CE5FC" stroke-width="3"/>
<g filter="url(#filter31_f_21_1282)">
<circle cx="185" cy="372" r="69" stroke="#7419E9" stroke-width="12"/>
</g>
<g filter="url(#filter32_f_21_1282)">
<circle cx="185" cy="372" r="40" stroke="#FF8997" stroke-width="3"/>
</g>
<circle cx="185" cy="372" r="35" stroke="#3CFC89" stroke-width="3"/>
<circle cx="424.5" cy="709.5" r="55.5" stroke="#3CE5FC" stroke-width="3"/>
<path d="M476.185 729.722C479.51 721.222 480.688 712.034 479.615 702.97C478.541 693.907 475.248 685.248 470.029 677.76C464.809 670.273 457.823 664.189 449.691 660.046C441.558 655.904 432.529 653.831 423.404 654.011C414.279 654.191 405.339 656.619 397.376 661.08C389.413 665.54 382.673 671.896 377.753 679.583C372.834 687.271 369.886 696.053 369.171 705.152C368.456 714.251 369.996 723.386 373.654 731.748L393.931 722.875C391.732 717.848 390.806 712.356 391.236 706.886C391.666 701.416 393.438 696.136 396.396 691.514C399.354 686.892 403.406 683.071 408.193 680.39C412.98 677.708 418.355 676.248 423.841 676.14C429.327 676.031 434.755 677.278 439.645 679.768C444.534 682.259 448.734 685.917 451.872 690.418C455.01 694.919 456.989 700.125 457.635 705.574C458.281 711.023 457.572 716.548 455.573 721.658L476.185 729.722Z" stroke="#3CE5FC" stroke-width="3"/>
<g filter="url(#filter33_f_21_1282)">
<circle cx="424.5" cy="709.5" r="49.5" stroke="#7419E9" stroke-width="12"/>
</g>
<g filter="url(#filter34_f_21_1282)">
<circle cx="424.5" cy="709.5" r="29.6" stroke="#FF8997" stroke-width="3"/>
</g>
<circle cx="424.5" cy="709.5" r="25.9" stroke="#3DE4FC" stroke-width="3"/>
<path d="M840.088 771.936C854.064 746.586 858.405 717.038 852.311 688.739C846.218 660.441 830.1 635.298 806.929 617.947C783.759 600.596 755.097 592.205 726.227 594.321C697.357 596.437 670.225 608.918 649.833 629.463C629.44 650.008 617.161 677.231 615.259 706.116C613.357 735.001 621.961 763.6 639.484 786.641C657.007 809.682 682.268 825.612 710.611 831.495C738.954 837.379 768.469 832.818 793.714 818.655L768.642 773.965C754.177 782.08 737.266 784.693 721.026 781.322C704.786 777.951 690.312 768.824 680.271 755.621C670.231 742.419 665.302 726.033 666.391 709.483C667.481 692.932 674.517 677.334 686.201 665.562C697.886 653.79 713.432 646.639 729.973 645.427C746.515 644.214 762.938 649.022 776.214 658.964C789.49 668.906 798.725 683.312 802.217 699.526C805.708 715.741 803.221 732.671 795.213 747.196L840.088 771.936Z" stroke="#3CE5FC" stroke-width="3"/>
<g filter="url(#filter35_f_21_1282)">
<circle cx="735" cy="714" r="114" stroke="#7419E9" stroke-width="12"/>
</g>
<g filter="url(#filter36_f_21_1282)">
<circle cx="735" cy="714" r="64" stroke="#FF8997" stroke-width="8"/>
</g>
<circle cx="735" cy="714" r="56" stroke="#EC3CFC" stroke-width="3"/>
<circle cx="911" cy="409" r="75" stroke="#3CE5FC" stroke-width="3"/>
<path d="M857.967 355.967C850.688 363.246 844.986 371.945 841.214 381.523C837.443 391.101 835.684 401.353 836.047 411.641C836.409 421.928 838.885 432.031 843.321 441.32C847.757 450.609 854.058 458.885 861.831 465.634C869.604 472.382 878.683 477.459 888.503 480.546C898.323 483.634 908.673 484.667 918.91 483.582C929.146 482.496 939.049 479.315 948.003 474.236C956.957 469.157 964.769 462.29 970.954 454.061L947.045 436.091C943.326 441.038 938.629 445.167 933.246 448.22C927.863 451.274 921.909 453.186 915.755 453.839C909.601 454.491 903.378 453.87 897.475 452.014C891.571 450.157 886.113 447.106 881.439 443.048C876.766 438.991 872.978 434.015 870.311 428.431C867.644 422.846 866.156 416.773 865.938 410.588C865.72 404.403 866.777 398.239 869.045 392.481C871.312 386.723 874.74 381.492 879.116 377.116L857.967 355.967Z" stroke="#3CE5FC" stroke-width="3"/>
<g filter="url(#filter37_f_21_1282)">
<mask id="path-99-inside-1_21_1282" fill="white">
<path d="M986 409C986 424.698 981.075 439.999 971.918 452.749C962.761 465.5 949.835 475.055 934.96 480.07C920.085 485.085 904.011 485.306 889.004 480.702C873.997 476.098 860.812 466.902 851.308 454.408C841.804 441.915 836.46 426.754 836.028 411.063C835.597 395.371 840.099 379.939 848.902 366.942C857.705 353.945 870.364 344.038 885.095 338.616C899.826 333.194 915.888 332.531 931.016 336.72L911 409H986Z"/>
</mask>
<path d="M986 409C986 424.698 981.075 439.999 971.918 452.749C962.761 465.5 949.835 475.055 934.96 480.07C920.085 485.085 904.011 485.306 889.004 480.702C873.997 476.098 860.812 466.902 851.308 454.408C841.804 441.915 836.46 426.754 836.028 411.063C835.597 395.371 840.099 379.939 848.902 366.942C857.705 353.945 870.364 344.038 885.095 338.616C899.826 333.194 915.888 332.531 931.016 336.72L911 409H986Z" stroke="#7419E9" stroke-width="24" mask="url(#path-99-inside-1_21_1282)"/>
</g>
<g filter="url(#filter38_f_21_1282)">
<circle cx="911" cy="409" r="40" stroke="#FF8997" stroke-width="3"/>
</g>
<circle cx="911" cy="409" r="35" stroke="#3DE4FC" stroke-width="3"/>
<path d="M1301.31 716.694C1310.37 725.755 1321.99 731.812 1334.61 734.044C1347.23 736.277 1360.23 734.577 1371.85 729.175C1383.47 723.773 1393.15 714.931 1399.57 703.845C1406 692.759 1408.86 679.966 1407.77 667.199C1406.69 654.431 1401.7 642.306 1393.5 632.466C1385.29 622.626 1374.25 615.547 1361.89 612.187C1349.52 608.827 1336.42 609.349 1324.36 613.682C1312.31 618.015 1301.87 625.95 1294.47 636.412L1314.95 650.893C1319.38 644.629 1325.63 639.878 1332.85 637.284C1340.07 634.689 1347.91 634.377 1355.31 636.389C1362.72 638.4 1369.32 642.639 1374.24 648.53C1379.15 654.422 1382.14 661.682 1382.79 669.326C1383.44 676.97 1381.72 684.63 1377.87 691.267C1374.03 697.905 1368.23 703.199 1361.27 706.433C1354.32 709.667 1346.54 710.685 1338.98 709.348C1331.43 708.012 1324.46 704.385 1319.04 698.96L1301.31 716.694Z" stroke="#3CE5FC" stroke-width="3"/>
<g filter="url(#filter39_f_21_1282)">
<circle cx="1345.5" cy="672.5" r="56.5" stroke="#13AD6D" stroke-width="12"/>
</g>
<g filter="url(#filter40_f_21_1282)">
<circle cx="1345.5" cy="672.5" r="33.3333" stroke="#FFF621" stroke-width="3"/>
</g>
<circle cx="1345.5" cy="672.5" r="29.1667" stroke="#FCF43C" stroke-width="3"/>
</g>
<defs>
<filter id="filter0_f_21_1282" x="12" y="857" width="62" height="62" filterUnits="userSpaceOnUse" color-interpolation-filters="sRGB">
<feFlood flood-opacity="0" result="BackgroundImageFix"/>
<feBlend mode="normal" in="SourceGraphic" in2="BackgroundImageFix" result="shape"/>
<feGaussianBlur stdDeviation="10" result="effect1_foregroundBlur_21_1282"/>
</filter>
<filter id="filter1_f_21_1282" x="84" y="646" width="62" height="62" filterUnits="userSpaceOnUse" color-interpolation-filters="sRGB">
<feFlood flood-opacity="0" result="BackgroundImageFix"/>
<feBlend mode="normal" in="SourceGraphic" in2="BackgroundImageFix" result="shape"/>
<feGaussianBlur stdDeviation="10" result="effect1_foregroundBlur_21_1282"/>
</filter>
<filter id="filter2_f_21_1282" x="154" y="203" width="62" height="62" filterUnits="userSpaceOnUse" color-interpolation-filters="sRGB">
<feFlood flood-opacity="0" result="BackgroundImageFix"/>
<feBlend mode="normal" in="SourceGraphic" in2="BackgroundImageFix" result="shape"/>
<feGaussianBlur stdDeviation="10" result="effect1_foregroundBlur_21_1282"/>
</filter>
<filter id="filter3_f_21_1282" x="236" y="68" width="62" height="62" filterUnits="userSpaceOnUse" color-interpolation-filters="sRGB">
<feFlood flood-opacity="0" result="BackgroundImageFix"/>
<feBlend mode="normal" in="SourceGraphic" in2="BackgroundImageFix" result="shape"/>
<feGaussianBlur stdDeviation="10" result="effect1_foregroundBlur_21_1282"/>
</filter>
<filter id="filter4_f_21_1282" x="504" y="202" width="62" height="62" filterUnits="userSpaceOnUse" color-interpolation-filters="sRGB">
<feFlood flood-opacity="0" result="BackgroundImageFix"/>
<feBlend mode="normal" in="SourceGraphic" in2="BackgroundImageFix" result="shape"/>
<feGaussianBlur stdDeviation="10" result="effect1_foregroundBlur_21_1282"/>
</filter>
<filter id="filter5_f_21_1282" x="575" y="94" width="62" height="62" filterUnits="userSpaceOnUse" color-interpolation-filters="sRGB">
<feFlood flood-opacity="0" result="BackgroundImageFix"/>
<feBlend mode="normal" in="SourceGraphic" in2="BackgroundImageFix" result="shape"/>
<feGaussianBlur stdDeviation="10" result="effect1_foregroundBlur_21_1282"/>
</filter>
<filter id="filter6_f_21_1282" x="677" y="430" width="62" height="62" filterUnits="userSpaceOnUse" color-interpolation-filters="sRGB">
<feFlood flood-opacity="0" result="BackgroundImageFix"/>
<feBlend mode="normal" in="SourceGraphic" in2="BackgroundImageFix" result="shape"/>
<feGaussianBlur stdDeviation="10" result="effect1_foregroundBlur_21_1282"/>
</filter>
<filter id="filter7_f_21_1282" x="797" y="268" width="62" height="62" filterUnits="userSpaceOnUse" color-interpolation-filters="sRGB">
<feFlood flood-opacity="0" result="BackgroundImageFix"/>
<feBlend mode="normal" in="SourceGraphic" in2="BackgroundImageFix" result="shape"/>
<feGaussianBlur stdDeviation="10" result="effect1_foregroundBlur_21_1282"/>
</filter>
<filter id="filter8_f_21_1282" x="881" y="584" width="62" height="62" filterUnits="userSpaceOnUse" color-interpolation-filters="sRGB">
<feFlood flood-opacity="0" result="BackgroundImageFix"/>
<feBlend mode="normal" in="SourceGraphic" in2="BackgroundImageFix" result="shape"/>
<feGaussianBlur stdDeviation="10" result="effect1_foregroundBlur_21_1282"/>
</filter>
<filter id="filter9_f_21_1282" x="880" y="116" width="62" height="62" filterUnits="userSpaceOnUse" color-interpolation-filters="sRGB">
<feFlood flood-opacity="0" result="BackgroundImageFix"/>
<feBlend mode="normal" in="SourceGraphic" in2="BackgroundImageFix" result="shape"/>
<feGaussianBlur stdDeviation="10" result="effect1_foregroundBlur_21_1282"/>
</filter>
<filter id="filter10_f_21_1282" x="1034" y="464" width="62" height="62" filterUnits="userSpaceOnUse" color-interpolation-filters="sRGB">
<feFlood flood-opacity="0" result="BackgroundImageFix"/>
<feBlend mode="normal" in="SourceGraphic" in2="BackgroundImageFix" result="shape"/>
<feGaussianBlur stdDeviation="10" result="effect1_foregroundBlur_21_1282"/>
</filter>
<filter id="filter11_f_21_1282" x="1093" y="286" width="62" height="62" filterUnits="userSpaceOnUse" color-interpolation-filters="sRGB">
<feFlood flood-opacity="0" result="BackgroundImageFix"/>
<feBlend mode="normal" in="SourceGraphic" in2="BackgroundImageFix" result="shape"/>
<feGaussianBlur stdDeviation="10" result="effect1_foregroundBlur_21_1282"/>
</filter>
<filter id="filter12_f_21_1282" x="1156" y="422" width="62" height="62" filterUnits="userSpaceOnUse" color-interpolation-filters="sRGB">
<feFlood flood-opacity="0" result="BackgroundImageFix"/>
<feBlend mode="normal" in="SourceGraphic" in2="BackgroundImageFix" result="shape"/>
<feGaussianBlur stdDeviation="10" result="effect1_foregroundBlur_21_1282"/>
</filter>
<filter id="filter13_f_21_1282" x="1194" y="170" width="62" height="62" filterUnits="userSpaceOnUse" color-interpolation-filters="sRGB">
<feFlood flood-opacity="0" result="BackgroundImageFix"/>
<feBlend mode="normal" in="SourceGraphic" in2="BackgroundImageFix" result="shape"/>
<feGaussianBlur stdDeviation="10" result="effect1_foregroundBlur_21_1282"/>
</filter>
<filter id="filter14_f_21_1282" x="114" y="455" width="102" height="102" filterUnits="userSpaceOnUse" color-interpolation-filters="sRGB">
<feFlood flood-opacity="0" result="BackgroundImageFix"/>
<feBlend mode="normal" in="SourceGraphic" in2="BackgroundImageFix" result="shape"/>
<feGaussianBlur stdDeviation="15" result="effect1_foregroundBlur_21_1282"/>
</filter>
<filter id="filter15_f_21_1282" x="148" y="489" width="34" height="34" filterUnits="userSpaceOnUse" color-interpolation-filters="sRGB">
<feFlood flood-opacity="0" result="BackgroundImageFix"/>
<feBlend mode="normal" in="SourceGraphic" in2="BackgroundImageFix" result="shape"/>
<feGaussianBlur stdDeviation="2" result="effect1_foregroundBlur_21_1282"/>
</filter>
<filter id="filter16_f_21_1282" x="306" y="160" width="102" height="102" filterUnits="userSpaceOnUse" color-interpolation-filters="sRGB">
<feFlood flood-opacity="0" result="BackgroundImageFix"/>
<feBlend mode="normal" in="SourceGraphic" in2="BackgroundImageFix" result="shape"/>
<feGaussianBlur stdDeviation="15" result="effect1_foregroundBlur_21_1282"/>
</filter>
<filter id="filter17_f_21_1282" x="340" y="194" width="34" height="34" filterUnits="userSpaceOnUse" color-interpolation-filters="sRGB">
<feFlood flood-opacity="0" result="BackgroundImageFix"/>
<feBlend mode="normal" in="SourceGraphic" in2="BackgroundImageFix" result="shape"/>
<feGaussianBlur stdDeviation="2" result="effect1_foregroundBlur_21_1282"/>
</filter>
<filter id="filter18_f_21_1282" x="441" y="451" width="102" height="102" filterUnits="userSpaceOnUse" color-interpolation-filters="sRGB">
<feFlood flood-opacity="0" result="BackgroundImageFix"/>
<feBlend mode="normal" in="SourceGraphic" in2="BackgroundImageFix" result="shape"/>
<feGaussianBlur stdDeviation="15" result="effect1_foregroundBlur_21_1282"/>
</filter>
<filter id="filter19_f_21_1282" x="475" y="485" width="34" height="34" filterUnits="userSpaceOnUse" color-interpolation-filters="sRGB">
<feFlood flood-opacity="0" result="BackgroundImageFix"/>
<feBlend mode="normal" in="SourceGraphic" in2="BackgroundImageFix" result="shape"/>
<feGaussianBlur stdDeviation="2" result="effect1_foregroundBlur_21_1282"/>
</filter>
<filter id="filter20_f_21_1282" x="692" y="180" width="102" height="102" filterUnits="userSpaceOnUse" color-interpolation-filters="sRGB">
<feFlood flood-opacity="0" result="BackgroundImageFix"/>
<feBlend mode="normal" in="SourceGraphic" in2="BackgroundImageFix" result="shape"/>
<feGaussianBlur stdDeviation="15" result="effect1_foregroundBlur_21_1282"/>
</filter>
<filter id="filter21_f_21_1282" x="726" y="214" width="34" height="34" filterUnits="userSpaceOnUse" color-interpolation-filters="sRGB">
<feFlood flood-opacity="0" result="BackgroundImageFix"/>
<feBlend mode="normal" in="SourceGraphic" in2="BackgroundImageFix" result="shape"/>
<feGaussianBlur stdDeviation="2" result="effect1_foregroundBlur_21_1282"/>
</filter>
<filter id="filter22_f_21_1282" x="982" y="324" width="102" height="102" filterUnits="userSpaceOnUse" color-interpolation-filters="sRGB">
<feFlood flood-opacity="0" result="BackgroundImageFix"/>
<feBlend mode="normal" in="SourceGraphic" in2="BackgroundImageFix" result="shape"/>
<feGaussianBlur stdDeviation="15" result="effect1_foregroundBlur_21_1282"/>
</filter>
<filter id="filter23_f_21_1282" x="1016" y="358" width="34" height="34" filterUnits="userSpaceOnUse" color-interpolation-filters="sRGB">
<feFlood flood-opacity="0" result="BackgroundImageFix"/>
<feBlend mode="normal" in="SourceGraphic" in2="BackgroundImageFix" result="shape"/>
<feGaussianBlur stdDeviation="2" result="effect1_foregroundBlur_21_1282"/>
</filter>
<filter id="filter24_f_21_1282" x="1294" y="454" width="102" height="102" filterUnits="userSpaceOnUse" color-interpolation-filters="sRGB">
<feFlood flood-opacity="0" result="BackgroundImageFix"/>
<feBlend mode="normal" in="SourceGraphic" in2="BackgroundImageFix" result="shape"/>
<feGaussianBlur stdDeviation="15" result="effect1_foregroundBlur_21_1282"/>
</filter>
<filter id="filter25_f_21_1282" x="1328" y="488" width="34" height="34" filterUnits="userSpaceOnUse" color-interpolation-filters="sRGB">
<feFlood flood-opacity="0" result="BackgroundImageFix"/>
<feBlend mode="normal" in="SourceGraphic" in2="BackgroundImageFix" result="shape"/>
<feGaussianBlur stdDeviation="2" result="effect1_foregroundBlur_21_1282"/>
</filter>
<filter id="filter26_f_21_1282" x="274.967" y="517.967" width="103.067" height="103.067" filterUnits="userSpaceOnUse" color-interpolation-filters="sRGB">
<feFlood flood-opacity="0" result="BackgroundImageFix"/>
<feBlend mode="normal" in="SourceGraphic" in2="BackgroundImageFix" result="shape"/>
<feGaussianBlur stdDeviation="5.26667" result="effect1_foregroundBlur_21_1282"/>
</filter>
<filter id="filter27_f_21_1282" x="1008.9" y="733.9" width="113.2" height="113.2" filterUnits="userSpaceOnUse" color-interpolation-filters="sRGB">
<feFlood flood-opacity="0" result="BackgroundImageFix"/>
<feBlend mode="normal" in="SourceGraphic" in2="BackgroundImageFix" result="shape"/>
<feGaussianBlur stdDeviation="5.8" result="effect1_foregroundBlur_21_1282"/>
</filter>
<filter id="filter28_f_21_1282" x="1172.97" y="305.967" width="103.067" height="103.067" filterUnits="userSpaceOnUse" color-interpolation-filters="sRGB">
<feFlood flood-opacity="0" result="BackgroundImageFix"/>
<feBlend mode="normal" in="SourceGraphic" in2="BackgroundImageFix" result="shape"/>
<feGaussianBlur stdDeviation="5.26667" result="effect1_foregroundBlur_21_1282"/>
</filter>
<filter id="filter29_f_21_1282" x="85" y="815" width="159" height="159" filterUnits="userSpaceOnUse" color-interpolation-filters="sRGB">
<feFlood flood-opacity="0" result="BackgroundImageFix"/>
<feBlend mode="normal" in="SourceGraphic" in2="BackgroundImageFix" result="shape"/>
<feGaussianBlur stdDeviation="20" result="effect1_foregroundBlur_21_1282"/>
</filter>
<filter id="filter30_f_21_1282" x="131.4" y="861.4" width="66.2" height="66.2" filterUnits="userSpaceOnUse" color-interpolation-filters="sRGB">
<feFlood flood-opacity="0" result="BackgroundImageFix"/>
<feBlend mode="normal" in="SourceGraphic" in2="BackgroundImageFix" result="shape"/>
<feGaussianBlur stdDeviation="5.26667" result="effect1_foregroundBlur_21_1282"/>
</filter>
<filter id="filter31_f_21_1282" x="60" y="247" width="250" height="250" filterUnits="userSpaceOnUse" color-interpolation-filters="sRGB">
<feFlood flood-opacity="0" result="BackgroundImageFix"/>
<feBlend mode="normal" in="SourceGraphic" in2="BackgroundImageFix" result="shape"/>
<feGaussianBlur stdDeviation="25" result="effect1_foregroundBlur_21_1282"/>
</filter>
<filter id="filter32_f_21_1282" x="123.5" y="310.5" width="123" height="123" filterUnits="userSpaceOnUse" color-interpolation-filters="sRGB">
<feFlood flood-opacity="0" result="BackgroundImageFix"/>
<feBlend mode="normal" in="SourceGraphic" in2="BackgroundImageFix" result="shape"/>
<feGaussianBlur stdDeviation="10" result="effect1_foregroundBlur_21_1282"/>
</filter>
<filter id="filter33_f_21_1282" x="319" y="604" width="211" height="211" filterUnits="userSpaceOnUse" color-interpolation-filters="sRGB">
<feFlood flood-opacity="0" result="BackgroundImageFix"/>
<feBlend mode="normal" in="SourceGraphic" in2="BackgroundImageFix" result="shape"/>
<feGaussianBlur stdDeviation="25" result="effect1_foregroundBlur_21_1282"/>
</filter>
<filter id="filter34_f_21_1282" x="378.6" y="663.6" width="91.8" height="91.8" filterUnits="userSpaceOnUse" color-interpolation-filters="sRGB">
<feFlood flood-opacity="0" result="BackgroundImageFix"/>
<feBlend mode="normal" in="SourceGraphic" in2="BackgroundImageFix" result="shape"/>
<feGaussianBlur stdDeviation="7.4" result="effect1_foregroundBlur_21_1282"/>
</filter>
<filter id="filter35_f_21_1282" x="565" y="544" width="340" height="340" filterUnits="userSpaceOnUse" color-interpolation-filters="sRGB">
<feFlood flood-opacity="0" result="BackgroundImageFix"/>
<feBlend mode="normal" in="SourceGraphic" in2="BackgroundImageFix" result="shape"/>
<feGaussianBlur stdDeviation="25" result="effect1_foregroundBlur_21_1282"/>
</filter>
<filter id="filter36_f_21_1282" x="635" y="614" width="200" height="200" filterUnits="userSpaceOnUse" color-interpolation-filters="sRGB">
<feFlood flood-opacity="0" result="BackgroundImageFix"/>
<feBlend mode="normal" in="SourceGraphic" in2="BackgroundImageFix" result="shape"/>
<feGaussianBlur stdDeviation="16" result="effect1_foregroundBlur_21_1282"/>
</filter>
<filter id="filter37_f_21_1282" x="786" y="284" width="250" height="250" filterUnits="userSpaceOnUse" color-interpolation-filters="sRGB">
<feFlood flood-opacity="0" result="BackgroundImageFix"/>
<feBlend mode="normal" in="SourceGraphic" in2="BackgroundImageFix" result="shape"/>
<feGaussianBlur stdDeviation="25" result="effect1_foregroundBlur_21_1282"/>
</filter>
<filter id="filter38_f_21_1282" x="849.5" y="347.5" width="123" height="123" filterUnits="userSpaceOnUse" color-interpolation-filters="sRGB">
<feFlood flood-opacity="0" result="BackgroundImageFix"/>
<feBlend mode="normal" in="SourceGraphic" in2="BackgroundImageFix" result="shape"/>
<feGaussianBlur stdDeviation="10" result="effect1_foregroundBlur_21_1282"/>
</filter>
<filter id="filter39_f_21_1282" x="1243" y="570" width="205" height="205" filterUnits="userSpaceOnUse" color-interpolation-filters="sRGB">
<feFlood flood-opacity="0" result="BackgroundImageFix"/>
<feBlend mode="normal" in="SourceGraphic" in2="BackgroundImageFix" result="shape"/>
<feGaussianBlur stdDeviation="20" result="effect1_foregroundBlur_21_1282"/>
</filter>
<filter id="filter40_f_21_1282" x="1294" y="621" width="103" height="103" filterUnits="userSpaceOnUse" color-interpolation-filters="sRGB">
<feFlood flood-opacity="0" result="BackgroundImageFix"/>
<feBlend mode="normal" in="SourceGraphic" in2="BackgroundImageFix" result="shape"/>
<feGaussianBlur stdDeviation="8.33333" result="effect1_foregroundBlur_21_1282"/>
</filter>
<radialGradient id="paint0_radial_21_1282" cx="0" cy="0" r="1" gradientUnits="userSpaceOnUse" gradientTransform="translate(720 670) rotate(90) scale(464 720)">
<stop stop-color="#1F1688"/>
<stop offset="1" stop-color="#070146"/>
</radialGradient>
<clipPath id="clip0_21_1282">
<rect width="1440" height="1024" fill="white"/>
</clipPath>
</defs>
</svg>
